# xmcd CD database file generated by Grip 3.3.1
# 
# Track frame offsets:
#       150
#       55186
#       100350
#       157202
#       208019
#       232535
# 
# Disc length: 3840 seconds
# 
# Revision: 1
# Processed by: cddbd v1.5.2PL0 Copyright (c) Steve Scherf et al.
# Submitted via: Grip 3.3.1
# 
DISCID=480efe06
DTITLE=Werner Thomas-Mifune (cello), Bamberger Symphoniker, Yuri Ahronov
DTITLE=ich (cond.) - Anton Rubinstein - Cellokonzerte
DYEAR=2005
DGENRE=Classical
TTITLE0=1. Moderato - Cellokonzert No.1, Op.65
TTITLE1=2. Adagio - Cellokonzert No.1, Op.65
TTITLE2=3. Allegro con fuoco - Cellokonzert No.1, Op.65
TTITLE3=1. Allegro moderato - Cellokonzert No.2, Op.96
TTITLE4=2. Andante - Cellokonzert No.2, Op.96
TTITLE5=3. Allegro - Cellokonzert No.2, Op.96
EXTD=
EXTT0=
EXTT1=
EXTT2=
EXTT3=
EXTT4=
EXTT5=
PLAYORDER=
